<?xml version="1.0" encoding="utf-8"?>
<!-- Generator: Adobe Illustrator 15.1.0, SVG Export Plug-In . SVG Version: 6.00 Build 0)  -->
<!DOCTYPE svg PUBLIC "-//W3C//DTD SVG 1.0//EN" "http://www.w3.org/TR/2001/REC-SVG-20010904/DTD/svg10.dtd">
<svg version="1.0" id="Layer_1" xmlns="http://www.w3.org/2000/svg" xmlns:xlink="http://www.w3.org/1999/xlink" x="0px" y="0px"
	 width="396.85px" height="95.656px" viewBox="100.215 459.789 396.85 95.656"
	 enable-background="new 100.215 459.789 396.85 95.656" xml:space="preserve">
<g>
	<g>
		<path fill="#FFFFFF" d="M221.221,477.657l-0.059-0.092c-1.842-2.877-4.447-5.203-7.753-6.918
			c-3.229-1.668-7.063-2.514-11.388-2.514h-52.775c-6.015,0-11.155,1.082-15.313,3.229c-8.414,4.426-13.724,14.559-16.234,31.004
			c-0.675,4.545-1.017,8.629-1.017,12.139c0,7.658,1.468,13.939,4.362,18.67l0.058,0.092c1.842,2.877,4.447,5.203,7.753,6.918
			c3.23,1.668,7.063,2.514,11.388,2.514h26.652h26.123c6.014,0,11.154-1.08,15.313-3.229c8.414-4.424,13.724-14.559,16.234-31.004
			c0.675-4.545,1.018-8.629,1.018-12.137C225.583,488.668,224.115,482.387,221.221,477.657z"/>
		<path fill="#512E83" d="M216.699,479.717c-1.34-2.094-3.246-3.783-5.721-5.066c-2.479-1.277-5.461-1.924-8.956-1.924H175.37
			c0,0-0.037,0.002-0.093,0.002v-0.002h-26.652c-3.495,0-6.687,0.646-9.581,1.924c-2.892,1.283-5.329,2.688-7.35,4.781
			c-0.783,0.836-1.323,1.629-2.038,2.592l-0.334,0.535c-1.34,2.535-2.46,5.287-3.363,8.258c-0.902,2.971-1.792,6.771-2.667,11.402
			c-0.872,4.631-1.309,9.104-1.309,13.412c0,7.107,1.486,12.643,4.455,16.604c1.34,1.689,3.015,2.939,5.023,3.754
			c2.013,0.818,4.252,1.227,6.73,1.227c2.475,0,5.023-0.352,7.644-1.047c2.155-0.525,4.252-1.838,6.293-3.934l3.231,4.455h9.872
			h0.35h27.437c5.184,0,9.468-0.875,12.846-2.621c6.755-3.551,11.242-12.582,13.457-27.088c0.64-4.309,0.96-8.096,0.96-11.357
			C220.282,488.922,219.087,483.622,216.699,479.717z M205.08,504.883c-1.049,6.523-2.535,11.391-4.458,14.596
			c-1.92,3.203-4.573,4.803-7.95,4.803h-11.185l3.259-20.686h-31.204c-0.049,0.01-0.099,0.02-0.147,0.029
			c-0.3,0.061-0.594,0.123-0.878,0.189c-0.124,0.029-0.245,0.061-0.366,0.09c-0.251,0.064-0.498,0.127-0.735,0.193
			c-0.175,0.051-0.343,0.105-0.511,0.156c-0.175,0.055-0.354,0.107-0.521,0.166c-0.337,0.117-0.661,0.236-0.967,0.363l-1.396,9.004
			h6.9l-1.041,5.863c-0.234,0.35-0.495,0.641-0.785,0.871c-0.303,0.256-0.606,0.492-0.914,0.719
			c-0.112,0.084-0.226,0.16-0.338,0.238c-0.191,0.135-0.385,0.266-0.578,0.389c-0.145,0.092-0.288,0.182-0.434,0.268
			c-0.156,0.092-0.313,0.176-0.47,0.26c-0.171,0.094-0.342,0.188-0.515,0.271c-0.059,0.027-0.116,0.051-0.175,0.078
			c-0.487,0.229-0.98,0.424-1.479,0.586c-0.027,0.008-0.053,0.018-0.08,0.025c-0.26,0.084-0.522,0.154-0.786,0.219
			c-0.042,0.01-0.086,0.021-0.129,0.031c-0.272,0.063-0.546,0.119-0.821,0.162l-2.196,0.514h-1.217c-3.378,0-5.51-1.6-6.39-4.805
			c-0.882-3.203-0.787-8.07,0.284-14.594c0.912-4.775,1.741-8.314,2.49-10.617c0.747-2.301,1.677-4.135,2.794-5.504
			c0.721-0.887,1.47-1.592,2.248-2.125l0,0h0.001c0.19-0.133,0.384-0.25,0.579-0.359c0.037-0.021,0.074-0.043,0.111-0.063
			c0.2-0.107,0.399-0.209,0.603-0.295c1.247-0.521,2.715-0.785,4.403-0.785h4.947h5.627h27.03h6.073h4.501
			c1.688,0,3.071,0.264,4.148,0.785c1.078,0.525,1.952,1.473,2.62,2.842c0.672,1.369,1.007,3.203,1.007,5.504
			C206.04,496.571,205.718,500.108,205.08,504.883z"/>
		<path fill="#40A5B0" d="M202.022,472.727c3.495,0,6.478,0.646,8.956,1.924c2.475,1.283,4.38,2.975,5.721,5.066
			c2.389,3.904,3.583,9.205,3.583,15.904c0,3.264-0.32,7.051-0.96,11.359c-2.215,14.506-6.702,23.537-13.457,27.088
			c-3.378,1.746-7.662,2.621-12.846,2.621h-27.786l10.136-63.963H202.022L202.022,472.727z M192.67,524.282
			c3.377,0,6.03-1.6,7.95-4.803c1.923-3.205,3.41-8.072,4.458-14.596c0.641-4.775,0.96-8.313,0.96-10.617
			c0-2.299-0.334-4.135-1.007-5.504c-0.668-1.367-1.542-2.314-2.62-2.84c-1.077-0.523-2.46-0.785-4.148-0.785h-10.574l-6.204,39.145
			H192.67z"/>
		<path fill="#FFFFFF" d="M205.033,488.762c-0.668-1.367-1.542-2.314-2.62-2.84c-1.077-0.523-2.46-0.785-4.148-0.785h-4.501h-6.073
			h-27.03h-5.627h-4.947c-1.688,0-3.156,0.262-4.403,0.785c-0.203,0.084-0.402,0.186-0.603,0.293
			c-0.038,0.021-0.075,0.041-0.112,0.063c-0.193,0.109-0.387,0.229-0.578,0.359h-0.001l0,0c-0.778,0.533-1.527,1.24-2.248,2.125
			c-1.117,1.369-2.048,3.205-2.794,5.504c-0.749,2.305-1.578,5.842-2.49,10.617c-1.071,6.523-1.166,11.391-0.284,14.596
			c0.879,3.203,3.012,4.803,6.39,4.803h1.216l2.197-0.514c2.365-0.379,4.605-1.453,6.718-3.244c0.292-0.23,0.552-0.521,0.786-0.871
			l1.041-5.863h-6.9l1.396-9.002c1.144-0.48,2.52-0.875,4.112-1.189h31.219l-3.259,20.686h11.185c3.377,0,6.03-1.6,7.95-4.805
			c1.923-3.203,3.41-8.07,4.458-14.594c0.641-4.775,0.96-8.314,0.96-10.617C206.04,491.967,205.705,490.131,205.033,488.762z"/>
		<path fill="#512E83" d="M199.822,493.077c-0.243,1.729-1.842,3.129-3.57,3.129c-1.728,0-2.933-1.4-2.688-3.129
			c0.243-1.73,1.841-3.131,3.568-3.131C198.861,489.946,200.065,491.348,199.822,493.077z"/>
		<polygon fill="#512E83" points="170.479,503.596 165.234,526.926 169.488,526.926 172.005,503.596 		"/>
		<polygon fill="#FFFFFF" points="172.419,500.735 172.005,503.596 169.012,524.282 183.104,524.282 186.777,500.823 		"/>
		<polygon fill="#40A5B0" points="186.065,547.1 176.212,530.358 186.065,513.614 170.464,513.875 158.527,530.356 170.245,547.051 
					"/>
		<polygon fill="#512E83" points="188.989,502.379 183.842,502.379 184.566,497.235 189.71,497.235 		"/>
		<polygon fill="#FFFFFF" points="170.507,478.87 166.026,485.137 177.921,485.137 182.244,479.301 178.112,472.54 166.984,472.54 
					"/>
	</g>
	<g>
		<path fill="#513085" d="M272.162,489.112v-4.219h7.578v9.748c0,3.605-1.694,5.408-5.08,5.408h-5.161
			c-3.386,0-5.078-1.803-5.078-5.408v-16.506c0-3.605,1.692-5.408,5.078-5.408h5.161c3.386,0,5.08,1.803,5.08,5.408v2.498h-5.449
			v-3.195c0-0.219-0.074-0.41-0.225-0.574c-0.151-0.162-0.334-0.244-0.553-0.244h-2.58c-0.22,0-0.404,0.082-0.555,0.244
			c-0.148,0.164-0.225,0.355-0.225,0.574v17.859c0,0.219,0.075,0.41,0.225,0.574c0.149,0.162,0.335,0.244,0.555,0.244h2.58
			c0.219,0,0.4-0.082,0.553-0.244c0.149-0.164,0.225-0.355,0.225-0.574v-6.186H272.162L272.162,489.112z"/>
		<path fill="#513085" d="M295.8,472.727c3.387,0,5.08,1.803,5.08,5.408v21.504h-5.735v-8.889h-4.137v8.889h-5.734v-21.504
			c0-3.605,1.692-5.408,5.079-5.408H295.8z M291.008,486.327h4.137v-8.889c0-0.219-0.074-0.41-0.226-0.574
			c-0.15-0.162-0.335-0.246-0.554-0.246h-2.579c-0.219,0-0.404,0.084-0.554,0.246c-0.15,0.164-0.226,0.355-0.226,0.574
			L291.008,486.327L291.008,486.327z"/>
		<path fill="#513085" d="M312.712,499.639h-5.734v-21.504c0-3.605,1.691-5.408,5.078-5.408h3.031c1.992,0,3.414,0.656,4.26,1.967
			c0.792-1.311,2.213-1.967,4.262-1.967h3.029c3.387,0,5.08,1.803,5.08,5.408v21.504h-5.734v-21.996c0-0.219-0.076-0.41-0.227-0.574
			c-0.149-0.164-0.334-0.246-0.553-0.246h-2.213c-0.218,0-0.402,0.082-0.552,0.246c-0.151,0.164-0.228,0.355-0.228,0.574v21.996
			h-5.733v-21.996c0-0.219-0.075-0.41-0.226-0.574c-0.149-0.164-0.334-0.246-0.553-0.246h-2.211c-0.22,0-0.404,0.082-0.555,0.246
			c-0.148,0.164-0.225,0.355-0.225,0.574v21.996H312.712z"/>
		<path fill="#513085" d="M343.417,494.887h6.349v4.752h-12.084v-26.502h12.084v4.67h-6.349v6.227h5.938v4.506h-5.938V494.887z"/>
	</g>
	<g>
		<path fill="#44A5AB" d="M274.948,509.221c3.386,0,5.078,1.801,5.078,5.406v15.688c0,3.605-1.692,5.406-5.078,5.406H264.42v-26.5
			H274.948z M274.291,530.971V513.93c0-0.217-0.074-0.408-0.225-0.572c-0.151-0.164-0.334-0.246-0.553-0.246h-3.358v18.68h3.358
			c0.219,0,0.4-0.082,0.553-0.246C274.216,531.379,274.291,531.19,274.291,530.971z"/>
		<path fill="#44A5AB" d="M291.86,509.221v26.5h-5.735v-26.5H291.86z"/>
		<path fill="#44A5AB" d="M312.639,516.184h-5.447v-2.09c0-0.219-0.075-0.408-0.226-0.572s-0.336-0.246-0.553-0.246h-2.254
			c-0.219,0-0.402,0.082-0.553,0.246s-0.227,0.354-0.227,0.572v4.711c0,0.219,0.074,0.41,0.227,0.574
			c0.148,0.162,0.334,0.244,0.553,0.244h3.687c3.387,0.057,5.081,1.857,5.081,5.406v5.695c0,3.604-1.694,5.406-5.081,5.406h-4.833
			c-3.387,0-5.078-1.803-5.078-5.406v-2.746h5.445v2.951c0,0.217,0.076,0.408,0.228,0.572c0.149,0.164,0.334,0.246,0.552,0.246
			h2.541c0.219,0,0.402-0.082,0.553-0.246s0.226-0.355,0.226-0.572v-5.203c0-0.219-0.074-0.41-0.226-0.572
			c-0.149-0.166-0.334-0.246-0.553-0.246h-3.688c-3.387,0-5.078-1.803-5.078-5.406v-5.285c0-3.604,1.691-5.406,5.078-5.406h4.547
			c3.386,0,5.079,1.803,5.079,5.406V516.184z"/>
		<path fill="#44A5AB" d="M317.853,514.094v-4.873h14.336v4.873h-4.301v21.627h-5.735v-21.627H317.853z"/>
		<path fill="#44A5AB" d="M343.179,524.868v10.854h-5.734v-26.5h10.199c3.387,0,5.079,1.801,5.079,5.406v3.072
			c0,2.184-0.778,3.576-2.334,4.178c1.364,0.49,2.048,1.611,2.048,3.357v10.486h-5.734v-10.035c0-0.545-0.261-0.818-0.777-0.818
			H343.179z M343.179,513.112v7.742h3.031c0.219,0,0.401-0.082,0.554-0.246c0.149-0.164,0.225-0.354,0.225-0.572v-6.105
			c0-0.217-0.075-0.408-0.225-0.572c-0.151-0.164-0.335-0.246-0.554-0.246H343.179L343.179,513.112z"/>
		<path fill="#44A5AB" d="M364.233,509.221v26.5H358.5v-26.5H364.233z"/>
		<path fill="#44A5AB" d="M383.3,521.221c1.775,0.629,2.662,2.076,2.662,4.344v4.75c0,3.605-1.692,5.406-5.078,5.406h-10.527v-26.5
			h10.2c3.385,0,5.077,1.801,5.077,5.406v2.416C385.634,519.229,384.856,520.622,383.3,521.221z M379.123,513.112h-3.031v7.086
			h3.031c0.217,0,0.4-0.08,0.553-0.244c0.148-0.164,0.225-0.355,0.225-0.574v-5.447c0-0.219-0.074-0.41-0.225-0.572
			C379.523,513.194,379.339,513.112,379.123,513.112z M380.227,530.971v-5.939c0-0.219-0.074-0.408-0.226-0.572
			c-0.15-0.164-0.334-0.246-0.553-0.246h-3.357v7.578h3.357c0.219,0,0.401-0.082,0.553-0.246
			C380.152,531.379,380.227,531.19,380.227,530.971z"/>
		<path fill="#44A5AB" d="M401.359,509.221h5.734v21.504c0,3.605-1.692,5.406-5.078,5.406h-5.08c-3.387,0-5.079-1.803-5.079-5.406
			v-21.504h5.735v21.994c0,0.221,0.074,0.41,0.225,0.574s0.335,0.246,0.555,0.246h2.211c0.219,0,0.402-0.082,0.553-0.246
			s0.226-0.354,0.226-0.574L401.359,509.221L401.359,509.221z"/>
		<path fill="#44A5AB" d="M412.271,514.094v-4.873h14.338v4.873h-4.303v21.627h-5.734v-21.627H412.271z"/>
		<path fill="#44A5AB" d="M437.599,509.221v26.5h-5.734v-26.5H437.599z"/>
		<path fill="#44A5AB" d="M459.306,514.217v16.508c0,3.605-1.691,5.406-5.078,5.406h-5.449c-3.387,0-5.078-1.803-5.078-5.406
			v-16.508c0-3.604,1.691-5.406,5.078-5.406h5.449C457.613,508.811,459.306,510.614,459.306,514.217z M453.57,531.379v-17.857
			c0-0.219-0.074-0.41-0.225-0.574c-0.15-0.162-0.334-0.244-0.553-0.244h-2.58c-0.219,0-0.404,0.082-0.555,0.244
			c-0.148,0.164-0.225,0.355-0.225,0.574v17.857c0,0.219,0.074,0.41,0.225,0.574s0.336,0.246,0.555,0.246h2.58
			c0.219,0,0.4-0.082,0.553-0.246C453.496,531.79,453.57,531.598,453.57,531.379z"/>
		<path fill="#44A5AB" d="M480.597,535.721h-5.732v-21.996c0-0.217-0.076-0.408-0.227-0.572c-0.148-0.164-0.334-0.246-0.553-0.246
			h-2.211c-0.219,0-0.404,0.082-0.555,0.246c-0.148,0.164-0.225,0.355-0.225,0.572v21.996h-5.734v-21.504
			c0-3.604,1.691-5.406,5.078-5.406h5.08c3.387,0,5.078,1.803,5.078,5.406V535.721L480.597,535.721z"/>
	</g>
</g>
</svg>
