<?xml version="1.0" standalone="no"?>
<!DOCTYPE svg PUBLIC "-//W3C//DTD SVG 20010904//EN"
 "http://www.w3.org/TR/2001/REC-SVG-20010904/DTD/svg10.dtd">
<svg version="1.0" xmlns="http://www.w3.org/2000/svg"
 width="1096.000000pt" height="1096.000000pt" viewBox="0 0 1096.000000 1096.000000"
 preserveAspectRatio="xMidYMid meet">
<metadata>
Created by potrace 1.11, written by Peter Selinger 2001-2013
</metadata>
<g transform="translate(0.000000,1096.000000) scale(0.100000,-0.100000)"
fill="#000000" stroke="none">
<path d="M3528 8635 c-2 -2 -43 -6 -93 -9 -49 -3 -101 -8 -115 -11 -14 -2 -45
-7 -70 -9 -25 -3 -56 -8 -70 -11 -13 -2 -41 -7 -61 -10 -20 -3 -50 -10 -68
-15 -17 -5 -34 -9 -36 -9 -3 -1 -6 -1 -7 -2 -2 0 -16 -3 -32 -5 -16 -3 -47
-12 -70 -19 -23 -8 -46 -15 -53 -15 -6 0 -24 -5 -40 -12 -15 -6 -32 -12 -38
-14 -36 -9 -141 -50 -143 -56 -2 -5 -8 -8 -13 -8 -18 0 -145 -64 -214 -108
-153 -98 -289 -214 -416 -357 -46 -52 -139 -173 -139 -181 0 -3 -14 -23 -30
-44 -16 -21 -30 -40 -30 -43 0 -3 -23 -42 -50 -86 -28 -45 -47 -81 -43 -81 5
0 3 -4 -3 -8 -14 -9 -94 -176 -151 -316 -51 -125 -166 -467 -159 -474 3 -2 -1
-17 -10 -33 -8 -16 -15 -32 -15 -36 -1 -5 -3 -12 -4 -18 -2 -5 -9 -37 -16 -70
-7 -33 -14 -66 -16 -72 -2 -7 -5 -21 -7 -30 -3 -10 -5 -18 -6 -18 -1 0 -3 -9
-5 -20 -2 -11 -14 -76 -29 -145 -33 -163 -36 -179 -41 -215 -3 -16 -8 -43 -11
-60 -4 -16 -8 -41 -10 -55 -1 -14 -5 -41 -8 -60 -3 -19 -8 -57 -12 -85 -3 -27
-8 -57 -9 -65 -2 -14 -10 -73 -20 -160 -22 -186 -39 -474 -39 -675 1 -193 19
-475 34 -515 1 -3 2 -12 1 -20 -1 -15 22 -150 34 -200 3 -14 8 -38 11 -55 8
-55 97 -349 116 -385 9 -17 73 -159 79 -176 9 -25 114 -195 131 -213 10 -11
18 -22 18 -25 0 -14 194 -214 249 -256 18 -14 38 -30 45 -35 37 -35 276 -180
276 -169 0 3 13 -4 29 -15 16 -12 34 -21 40 -21 7 0 28 -9 49 -19 20 -10 39
-19 42 -19 3 -1 12 -3 20 -6 8 -2 40 -12 70 -22 30 -10 59 -17 63 -16 4 1 16
-2 25 -7 15 -8 36 -13 107 -26 11 -2 52 -8 90 -14 39 -5 90 -13 115 -17 25 -4
567 -8 1205 -10 638 -1 1168 -3 1177 -3 15 -1 125 -146 153 -201 5 -11 13 -20
17 -20 5 0 8 -7 8 -15 0 -8 5 -15 10 -15 6 0 14 -8 17 -17 4 -10 11 -22 15
-28 5 -5 15 -19 22 -30 14 -19 29 -20 645 -21 347 -1 631 2 631 6 0 4 -8 18
-17 31 -18 24 -23 33 -65 108 -54 96 -103 177 -112 183 -6 4 -7 10 -3 14 3 4
228 8 499 10 271 2 514 5 540 7 170 17 251 28 269 38 9 4 19 6 22 3 18 -18
419 98 547 159 36 17 71 32 78 33 8 1 21 9 30 16 10 8 37 24 62 38 40 20 166
105 180 120 3 3 28 23 55 45 162 130 354 366 483 595 52 93 159 316 177 370 1
3 6 16 12 30 6 14 18 42 26 62 8 20 13 39 9 42 -3 3 1 6 8 6 7 0 11 3 7 6 -3
4 1 23 9 43 9 20 17 43 19 51 2 8 4 15 5 15 1 0 3 11 6 24 2 14 9 30 15 38 6
7 9 13 5 13 -3 0 0 17 8 38 13 34 37 114 42 137 1 6 11 48 23 95 45 173 58
229 65 270 3 14 8 36 11 50 5 25 10 49 20 112 3 17 7 34 9 37 3 5 11 53 21
131 2 14 6 34 8 45 3 11 8 43 11 70 4 28 9 61 11 75 2 14 6 48 10 75 3 28 9
66 12 85 6 42 10 72 17 170 4 42 8 96 11 120 18 169 24 542 11 720 -9 132 -17
213 -22 240 -2 14 -7 45 -10 70 -3 25 -7 54 -9 65 -2 11 -7 34 -10 50 -3 17
-8 38 -11 48 -3 10 -7 31 -9 47 -2 16 -9 48 -16 72 -7 24 -13 50 -14 58 -3 18
-71 227 -84 255 -5 11 -17 38 -26 60 -45 104 -142 283 -165 305 -3 3 -16 21
-30 40 -38 55 -40 57 -135 154 -108 109 -150 146 -163 146 -6 0 -12 3 -14 8
-8 19 -225 157 -259 164 -8 2 -16 5 -19 8 -17 19 -273 114 -340 126 -14 3 -42
10 -64 15 -21 6 -40 8 -43 5 -3 -3 -14 -1 -24 5 -11 5 -40 12 -66 14 -27 3
-64 8 -83 12 -33 6 -4675 14 -4682 8z"/>
</g>
</svg>
