<?xml version="1.0" encoding="utf-8"?>
<!-- Generator: Adobe Illustrator 16.0.0, SVG Export Plug-In . SVG Version: 6.00 Build 0)  -->
<!DOCTYPE svg PUBLIC "-//W3C//DTD SVG 1.1//EN" "http://www.w3.org/Graphics/SVG/1.1/DTD/svg11.dtd">
<svg version="1.1" id="Layer_1" xmlns="http://www.w3.org/2000/svg" xmlns:xlink="http://www.w3.org/1999/xlink" x="0px" y="0px"
	 width="102.127px" height="100px" viewBox="188.937 185 102.127 100" enable-background="new 188.937 185 102.127 100"
	 xml:space="preserve">
<g>
	
		<linearGradient id="SVGID_1_" gradientUnits="userSpaceOnUse" x1="421" y1="15" x2="421" y2="-85.0005" gradientTransform="matrix(1 0 0 -1 -181 200)">
		<stop  offset="0" style="stop-color:#EA2F3A"/>
		<stop  offset="0.5273" style="stop-color:#D41F2D"/>
		<stop  offset="1" style="stop-color:#890D18"/>
	</linearGradient>
	<rect x="188.937" y="185" fill="url(#SVGID_1_)" width="102.127" height="100"/>
	<path fill="#090909" d="M217.919,208.404h-0.292c0,0-0.319,0.08-0.319,0.612c0,0.532,0,48.83,0,48.83s0.026,0.531,0.479,0.531
		s8.99,0,8.99,0s0.532-0.212,0.532-0.531c0-0.318,0-19.389,0-19.389l16.729-0.08c0,0,0.479-0.105,0.479-0.957
		c0-0.851,0-6.888,0-6.888s-0.239-0.399-0.558-0.399h-16.649v-13.138h18.696c0,0,0.586-0.292,0.506-0.745s-0.852-7.447-0.852-7.447
		s-0.186-0.399-0.904-0.399C244.036,208.404,217.919,208.404,217.919,208.404z"/>
	<path fill="#090909" d="M252.015,208.404c0,0-0.425,0.106-0.425,0.425c0,0.319,0,41.783,0,41.783s-0.452,8.75,8.351,8.644
		c0,0,3.431-0.187,5.026-1.41v-5.931c0,0-0.08-0.187-0.398-0.187c-0.319,0-1.569,0.106-1.569,0.106s-1.437,0.08-1.437-1.915v-40.983
		c0,0-0.213-0.572-0.571-0.572C260.632,208.364,252.015,208.404,252.015,208.404z"/>
</g>
</svg>
