<?xml version="1.0" encoding="utf-8"?>
<!-- Generator: Adobe Illustrator 16.0.0, SVG Export Plug-In . SVG Version: 6.00 Build 0)  -->
<!DOCTYPE svg PUBLIC "-//W3C//DTD SVG 1.1//EN" "http://www.w3.org/Graphics/SVG/1.1/DTD/svg11.dtd">
<svg version="1.1" id="Layer_2" xmlns="http://www.w3.org/2000/svg" xmlns:xlink="http://www.w3.org/1999/xlink" x="0px" y="0px"
	 width="38.301px" height="48.016px" viewBox="401.794 240.862 38.301 48.016"
	 enable-background="new 401.794 240.862 38.301 48.016" xml:space="preserve">
<path fill="#E45530" d="M437.55,240.862h-33.212c-1.404,0-2.544,1.139-2.544,2.545v42.926c0,1.404,1.14,2.545,2.544,2.545h33.212
	c1.404,0,2.545-1.141,2.545-2.545v-42.926C440.095,242,438.955,240.862,437.55,240.862z M420.945,287.608
	c-0.603,0-1.09-0.488-1.09-1.088c0-0.602,0.487-1.088,1.09-1.088c0.599,0,1.087,0.486,1.087,1.088
	C422.033,287.12,421.544,287.608,420.945,287.608z M438.035,284.323h-34.183v-39.904h34.183V284.323L438.035,284.323z"/>
</svg>
