<?xml version="1.0" encoding="utf-8"?>
<!-- Generator: Adobe Illustrator 16.0.0, SVG Export Plug-In . SVG Version: 6.00 Build 0)  -->
<!DOCTYPE svg PUBLIC "-//W3C//DTD SVG 1.1//EN" "http://www.w3.org/Graphics/SVG/1.1/DTD/svg11.dtd">
<svg version="1.1" id="Layer_1" xmlns="http://www.w3.org/2000/svg" xmlns:xlink="http://www.w3.org/1999/xlink" x="0px" y="0px"
	 width="102.127px" height="100px" viewBox="188.937 185 102.127 100" enable-background="new 188.937 185 102.127 100"
	 xml:space="preserve">
<g>
	<rect x="188.937" y="185" fill="#231F20" width="102.127" height="100"/>
</g>
<path fill="#F5F5F5" d="M276.898,225.633l-8.971-33.393l-33.454,8.978l-5.007,8.709l-10.045,0.03l-24.47,24.405l24.342,24.406
	h10.068l4.971,8.794l33.391,8.921l9.176-33.646l-5.099-8.538L276.898,225.633z M230.195,211.3l25.723-6.555l-14.607,25.439
	l-29.624,0.086L230.195,211.3z M230.248,257.514l-18.561-18.986h29.556l14.676,25.41L230.248,257.514z M263.116,260.096
	l-14.818-25.734l14.806-25.547l7.108,25.668L263.116,260.096z"/>
</svg>
