<?xml version="1.0" encoding="utf-8"?>
<!-- Generator: Adobe Illustrator 16.0.0, SVG Export Plug-In . SVG Version: 6.00 Build 0)  -->
<!DOCTYPE svg PUBLIC "-//W3C//DTD SVG 1.1//EN" "http://www.w3.org/Graphics/SVG/1.1/DTD/svg11.dtd">
<svg version="1.1" id="Layer_1" xmlns="http://www.w3.org/2000/svg" xmlns:xlink="http://www.w3.org/1999/xlink" x="0px" y="0px"
	 width="102.127px" height="100px" viewBox="188.937 185 102.127 100" enable-background="new 188.937 185 102.127 100"
	 xml:space="preserve">
<g>
	<rect x="188.937" y="185" fill="#961A1F" width="102.127" height="100"/>
</g>
<g id="g10" transform="matrix(1.3333333,0,0,-1.3333333,0,602.98667)">
	<g id="g12" transform="scale(0.1)">
		<path id="path18" fill="#F5F5F5" d="M1996.26,2711.034c-6.13-2.593-12.319-3.882-18.56-3.882c-9.851,0-18.713,1.714-26.587,5.142
			c-7.866,3.428-14.502,8.152-19.907,14.18c-5.405,6.013-9.551,13.088-12.429,21.211c-2.893,8.13-4.329,16.886-4.329,26.275
			c0,9.628,1.436,18.563,4.314,26.814c2.871,8.244,7.009,15.432,12.4,21.574c5.391,6.138,12.019,10.953,19.885,14.451
			c7.874,3.486,16.729,5.237,26.58,5.237c6.606,0,13.008-1,19.189-2.988c6.189-1.992,11.77-4.918,16.758-8.778
			c4.988-3.856,9.097-8.617,12.349-14.268c3.237-5.658,5.222-12.147,5.947-19.471h-27.026c-1.685,7.2-4.929,12.608-9.741,16.216
			c-4.805,3.6-10.627,5.405-17.476,5.405c-6.372,0-11.77-1.234-16.216-3.703c-4.438-2.464-8.049-5.779-10.811-9.932
			c-2.769-4.156-4.775-8.88-6.035-14.176c-1.267-5.295-1.897-10.771-1.897-16.428c0-5.417,0.637-10.686,1.897-15.798
			c1.267-5.112,3.281-9.719,6.042-13.806c2.769-4.094,6.372-7.375,10.833-9.836c4.438-2.476,9.858-3.706,16.238-3.706
			c9.375,0,16.619,2.366,21.738,7.097c5.112,4.731,8.086,11.587,8.936,20.581h-28.477v21.167h53.979v-69.573h-17.959l-2.878,14.597
			C2007.971,2718.146,2002.383,2713.612,1996.26,2711.034"/>
		<path id="path20" fill="#F5F5F5" d="M2079.734,2838.775v-104.751h62.717v-23.884h-90.938v128.635H2079.734"/>
		<path id="path22" fill="#F5F5F5" d="M1946.25,2694.144c-43.184-26.265-107.856-41.213-180.026-41.213
			c-130.02,0-235.419,54.141-235.419,120.93c0,66.782,105.399,120.923,235.419,120.923c72.433,0,137.369-15.224,180.56-41.653
			c-47.139,44.282-131.66,75.399-228.292,75.414c-148.004,0.026-267.993-69.214-268.008-154.647
			c-0.011-85.422,119.96-154.702,267.96-154.724C1814.7,2619.159,1898.994,2650.169,1946.25,2694.144"/>
		<path id="path24" fill="#F5F5F5" d="M1709.07,2848.784l-24.818-107.398l-29.971,107.398h-22.756l-29.901-107.398l-24.891,107.398
			h-23.448l36.826-139.984h21.998l30.978,109.951l30.608-109.951h22.064l38.119,139.984H1709.07"/>
		<path id="path26" fill="#F5F5F5" d="M1795.891,2789.864c-3.446,4.852-7.76,8.584-12.817,11.096
			c-5.2,2.585-11.228,3.896-17.922,3.896c-7.529,0-14.315-1.366-20.164-4.058c-5.552-2.556-10.283-6.31-14.077-11.166
			c-7.02-8.979-10.73-21.636-10.73-36.595c0-6.658,0.945-12.905,2.809-18.567c1.871-5.698,4.64-10.693,8.218-14.854
			c7.533-8.752,18.263-13.381,31.044-13.381c6.713,0,12.191,0.703,16.747,2.153c3.984,1.252,6.632,2.893,8.8,4.321
			c2.794,1.838,5.361,4.109,7.632,6.731c1.926,2.227,3.64,4.709,5.098,7.39c2.611,4.797,3.875,9.28,4.167,11.653l0.19,1.575h-18.285
			l-0.103-1.296c-0.458-5.94-8.258-16.545-22.145-16.545c-19.856,0-24.587,14.348-24.899,26.99h66.471v1.406
			c0,8.148-0.835,15.593-2.476,22.119C1801.765,2779.413,1799.224,2785.177,1795.891,2789.864L1795.891,2789.864z
			 M1763.053,2788.363c14.725,0,22.599-7.925,24.031-24.221h-47.611C1740.169,2777.413,1750.683,2788.363,1763.053,2788.363"/>
		<path id="path28" fill="#F5F5F5" d="M1897.94,2776.406c-1.78,5.654-4.387,10.639-7.764,14.813
			c-3.479,4.307-7.705,7.657-12.554,9.961c-5.061,2.402-10.737,3.618-16.868,3.618h-0.022c-5.654-0.092-10.818-1.326-15.337-3.666
			c-3.743-1.934-7.104-4.647-10.005-8.093v42.946h-18.208v-127.207h17.329v8.657c1.523-1.992,3.486-4.094,6.072-5.947
			c4.915-3.523,10.994-5.31,18.069-5.31c7.617,0,14.407,1.699,20.178,5.046c5.149,2.988,9.507,7.288,12.957,12.788
			c3.003,4.797,5.303,10.452,6.804,16.794c1.296,5.486,1.985,11.492,1.985,17.366
			C1900.576,2764.662,1899.69,2770.795,1897.94,2776.406z M1881.577,2755.748c0-9.99-2.014-18.354-5.815-24.207
			c-4.043-6.226-9.917-9.382-17.454-9.382c-10.898,0-23.613,7.617-23.613,29.084c0,10.283,1.267,18.197,3.882,24.192
			c3.772,8.661,10.115,12.869,19.38,12.869c9.866,0,16.458-3.867,20.164-11.818
			C1881.182,2769.917,1881.577,2761.952,1881.577,2755.748"/>
	</g>
</g>
</svg>
