<?xml version="1.0" encoding="utf-8"?>
<!-- Generator: Adobe Illustrator 16.0.0, SVG Export Plug-In . SVG Version: 6.00 Build 0)  -->
<!DOCTYPE svg PUBLIC "-//W3C//DTD SVG 1.1//EN" "http://www.w3.org/Graphics/SVG/1.1/DTD/svg11.dtd">
<svg version="1.1" id="Layer_2" xmlns="http://www.w3.org/2000/svg" xmlns:xlink="http://www.w3.org/1999/xlink" x="0px" y="0px"
	 width="15.074px" height="27.165px" viewBox="413.408 264.834 15.074 27.165"
	 enable-background="new 413.408 264.834 15.074 27.165" xml:space="preserve">
<path fill="#E45530" d="M426.376,264.834h-10.865c-1.161,0-2.104,0.943-2.104,2.105v22.955c0,1.164,0.941,2.105,2.104,2.105h10.865
	c1.162,0,2.105-0.941,2.105-2.105v-22.955C428.482,265.777,427.539,264.834,426.376,264.834z M420.945,291.02
	c-0.42,0-0.762-0.34-0.762-0.76c0-0.42,0.342-0.762,0.762-0.762s0.759,0.342,0.759,0.762
	C421.705,290.68,421.365,291.02,420.945,291.02z M427.562,288.844h-13.233v-21.061h13.233V288.844z"/>
</svg>
