<?xml version="1.0" encoding="utf-8"?>
<!-- Generator: Adobe Illustrator 16.0.0, SVG Export Plug-In . SVG Version: 6.00 Build 0)  -->
<!DOCTYPE svg PUBLIC "-//W3C//DTD SVG 1.1//EN" "http://www.w3.org/Graphics/SVG/1.1/DTD/svg11.dtd">
<svg version="1.1" id="Layer_2" xmlns="http://www.w3.org/2000/svg" xmlns:xlink="http://www.w3.org/1999/xlink" x="0px" y="0px"
	 width="65.284px" height="56.779px" viewBox="405.78 240.862 65.284 56.779" enable-background="new 405.78 240.862 65.284 56.779"
	 xml:space="preserve">
<path fill="#E45530" d="M467.894,240.862h-58.946c-1.75,0-3.168,1.419-3.168,3.17v41.34c0,1.749,1.418,3.169,3.168,3.169h23.836
	v7.122h-8.807v1.978h28.885v-1.978h-8.805v-7.122h23.836c1.75,0,3.17-1.42,3.17-3.169v-41.34
	C471.062,242.281,469.644,240.862,467.894,240.862z M438.419,285.77c-1.145,0-2.076-0.929-2.076-2.077
	c0-1.147,0.932-2.076,2.076-2.076c1.148,0,2.078,0.929,2.078,2.076C440.498,284.841,439.568,285.77,438.419,285.77z
	 M468.292,278.846h-59.744v-35.214h59.744V278.846z"/>
</svg>
